<?xml version="1.0" standalone="no"?>
<!DOCTYPE svg PUBLIC "-//W3C//DTD SVG 20010904//EN"
 "http://www.w3.org/TR/2001/REC-SVG-20010904/DTD/svg10.dtd">
<svg version="1.0" xmlns="http://www.w3.org/2000/svg"
 width="700.000000pt" height="700.000000pt" viewBox="0 0 700.000000 700.000000"
 preserveAspectRatio="xMidYMid meet">
<metadata>
Created by potrace 1.11, written by Peter Selinger 2001-2013
</metadata>
<g transform="translate(0.000000,700.000000) scale(0.100000,-0.100000)"
fill="#000000" stroke="none">
<path d="M3276 6479 l-217 -361 147 -247 c81 -135 149 -250 151 -254 3 -4 -46
26 -109 67 -328 216 -440 286 -448 281 -12 -7 -90 -126 -90 -136 0 -6 130 -92
567 -378 l132 -86 1 -137 c0 -76 -3 -138 -6 -138 -3 0 -43 24 -87 53 -45 30
-207 136 -361 237 -153 100 -286 184 -295 186 -11 3 -29 -17 -58 -65 -24 -38
-43 -71 -43 -73 0 -3 30 -25 68 -49 37 -24 184 -120 327 -214 143 -94 304
-199 358 -234 l97 -64 0 -483 0 -484 90 0 90 0 0 483 0 483 78 51 c42 28 203
134 357 235 154 101 310 204 348 227 37 24 67 45 67 47 0 16 -95 144 -103 141
-10 -4 -568 -367 -704 -458 l-43 -28 0 142 0 142 163 106 c89 59 243 160 342
224 99 65 184 122 189 126 13 11 -82 152 -98 146 -6 -3 -132 -84 -279 -181
-169 -111 -263 -167 -256 -153 7 12 75 126 151 253 l138 232 -156 258 c-87
143 -162 268 -168 279 -37 66 -112 185 -117 185 -3 0 -104 -163 -223 -361z
m326 -149 c44 -74 91 -153 103 -175 l23 -40 -112 -187 c-61 -103 -114 -188
-117 -188 -4 0 -53 78 -109 173 -57 94 -108 179 -113 188 -8 13 15 59 104 207
101 169 116 189 127 174 8 -9 50 -78 94 -152z"/>
<path d="M5119 5336 c-1 -12 -2 -39 -4 -61 -1 -22 -6 -103 -10 -180 -4 -77 -9
-156 -10 -175 -1 -19 -6 -98 -10 -175 -4 -77 -9 -156 -10 -175 -2 -19 -4 -40
-4 -47 -1 -7 -31 -29 -68 -50 -38 -21 -77 -43 -88 -50 -11 -7 -27 -15 -35 -19
-8 -4 -23 -14 -34 -23 -18 -16 -18 -12 -12 124 4 77 9 169 11 205 7 115 14
242 20 350 4 58 8 130 10 160 l3 55 -61 3 c-34 2 -74 4 -89 6 -24 3 -28 0 -29
-23 -1 -14 -2 -37 -3 -51 -2 -14 -6 -83 -10 -155 -4 -71 -9 -157 -11 -190 -2
-33 -7 -107 -10 -165 -3 -58 -7 -141 -10 -185 -3 -44 -7 -118 -10 -164 -3 -46
-6 -85 -7 -86 -4 -3 -629 -365 -677 -391 -18 -10 -41 -24 -50 -29 -9 -6 -35
-21 -58 -34 -24 -14 -43 -28 -43 -32 0 -3 19 -39 42 -78 26 -46 46 -70 55 -67
7 3 57 31 110 62 54 31 112 64 128 74 17 9 75 43 130 75 55 32 180 104 278
161 l178 103 454 -230 454 -230 41 81 40 80 -247 124 c-484 242 -554 279 -545
288 5 5 60 38 122 73 l113 63 34 -19 c73 -41 715 -361 717 -357 2 1 18 35 36
73 18 39 34 73 36 77 2 3 -127 72 -288 153 -161 80 -294 148 -296 150 -2 2
128 2 290 -1 l293 -5 180 322 c99 177 193 344 208 372 15 27 26 51 25 53 -2 1
-195 6 -428 9 l-425 6 -47 -88 c-75 -139 -137 -251 -190 -343 l-48 -85 5 90
c7 122 13 218 20 355 3 63 8 139 10 168 3 36 1 54 -8 57 -6 2 -47 6 -89 8 -73
3 -78 2 -79 -17z m943 -335 l37 -1 -105 -186 c-57 -103 -104 -191 -104 -196 0
-9 -445 -6 -454 3 -3 3 157 295 204 371 9 16 27 18 198 14 103 -3 204 -5 224
-5z"/>
<path d="M1720 5338 c-12 -4 -19 -11 -17 -15 3 -5 8 -71 11 -148 4 -77 9 -156
11 -175 2 -19 6 -100 10 -180 l6 -145 -82 145 c-45 80 -109 195 -143 255 l-61
110 -155 -1 c-130 -1 -645 -11 -689 -13 -9 -1 -10 -5 -4 -13 6 -7 24 -38 40
-68 66 -121 365 -655 369 -659 3 -3 335 -1 507 3 42 1 77 1 77 -1 0 -2 -132
-69 -292 -149 -161 -80 -295 -148 -297 -149 -5 -6 73 -155 81 -155 4 0 172 83
373 185 201 102 369 185 374 185 19 0 242 -133 234 -140 -4 -4 -184 -96 -400
-205 -379 -190 -392 -197 -383 -220 9 -25 60 -127 66 -134 2 -2 206 98 453
223 248 124 455 226 461 226 10 0 560 -313 642 -366 21 -13 40 -24 42 -24 2 0
38 -20 78 -44 l74 -43 42 72 c23 40 42 76 42 81 0 5 -187 116 -415 248 -405
233 -415 239 -416 270 0 17 -2 50 -4 73 -1 23 -6 97 -9 165 -4 68 -9 155 -12
193 -2 39 -6 106 -8 150 -9 153 -23 377 -25 398 -1 5 -36 6 -78 3 -43 -3 -83
-5 -88 -5 -11 -1 -11 -4 -1 -166 4 -55 9 -147 11 -205 3 -58 7 -132 10 -165 2
-33 7 -114 10 -180 3 -66 8 -135 11 -153 l4 -34 -67 37 c-160 88 -183 105
-184 133 0 15 -2 45 -4 67 -2 35 -8 145 -20 355 -2 30 -6 114 -10 185 -7 118
-11 175 -14 198 -1 10 -132 6 -161 -5z m-338 -388 c17 -30 45 -82 63 -115 18
-33 51 -93 75 -133 23 -41 39 -77 36 -80 -4 -3 -104 -7 -224 -9 l-217 -4 -107
193 c-59 105 -105 195 -103 198 2 3 103 5 225 5 l221 0 31 -55z"/>
<path d="M2539 5153 c-2 -23 -8 -274 -13 -539 l-5 -301 122 -69 c67 -38 142
-79 166 -92 24 -13 130 -72 235 -131 106 -59 200 -110 209 -114 15 -6 17 6 18
131 0 75 2 223 4 327 6 314 7 386 3 389 -11 9 -730 406 -733 406 -3 0 -5 -3
-6 -7z m249 -330 c38 -21 124 -69 193 -107 l124 -69 -2 -51 c-1 -28 -3 -127
-4 -219 -2 -93 -6 -170 -9 -171 -3 -2 -75 35 -160 83 -86 47 -172 95 -193 106
l-37 20 5 210 c2 115 4 216 5 223 0 17 2 16 78 -25z"/>
<path d="M4275 5064 c-93 -53 -255 -143 -360 -200 -104 -58 -192 -110 -196
-116 -4 -6 -5 -88 -3 -182 2 -94 6 -281 8 -414 2 -134 6 -245 8 -247 2 -2 109
55 238 126 225 125 267 148 425 234 39 21 72 40 74 42 5 3 3 229 -4 593 -2
102 -4 202 -5 223 0 20 -3 37 -7 36 -5 0 -84 -43 -178 -95z m15 -391 c1 -104
2 -204 3 -223 l2 -34 -194 -108 c-107 -60 -196 -107 -198 -105 -2 2 -5 103 -7
224 -4 204 -3 220 14 228 18 10 157 87 295 165 39 21 73 39 77 40 4 0 7 -84 8
-187z"/>
<path d="M1943 3722 c-199 -119 -362 -219 -362 -222 0 -3 163 -103 364 -223
l364 -217 358 215 c197 118 358 219 358 225 0 7 -708 441 -718 440 -1 0 -165
-98 -364 -218z m544 -98 c98 -59 184 -111 190 -116 9 -7 -25 -32 -119 -89 -72
-43 -132 -79 -134 -79 -2 0 -29 -16 -60 -36 l-56 -36 -189 114 c-104 62 -188
116 -187 120 2 5 367 227 375 228 0 0 81 -48 180 -106z"/>
<path d="M4322 3722 c-199 -119 -362 -219 -362 -222 0 -4 392 -243 509 -310
14 -9 69 -41 122 -73 l96 -58 359 216 c197 119 360 219 362 223 2 6 -166 112
-314 197 -19 11 -110 66 -202 121 -92 56 -176 106 -188 112 -18 9 -69 -18
-382 -206z m384 -1 c5 -5 32 -22 60 -38 104 -57 304 -178 303 -183 0 -3 -85
-56 -189 -118 l-190 -113 -190 113 c-104 62 -190 115 -190 118 0 5 371 229
381 230 3 0 9 -4 15 -9z"/>
<path d="M3470 3812 c-220 -28 -346 -253 -251 -447 118 -239 445 -236 564 5
31 64 31 196 -1 260 -57 116 -196 197 -312 182z m100 -200 c14 -10 35 -37 46
-60 27 -53 19 -102 -25 -145 -24 -24 -40 -31 -84 -35 -49 -4 -57 -2 -90 28
-36 31 -59 83 -52 117 2 10 4 23 4 29 2 20 46 63 81 78 41 17 85 13 120 -12z"/>
<path d="M2995 3316 c-96 -57 -516 -300 -575 -334 -19 -10 -62 -35 -95 -54
l-59 -36 -452 229 c-249 126 -455 229 -458 229 -12 0 -78 -152 -70 -159 5 -5
186 -98 402 -206 328 -166 390 -200 375 -209 -53 -32 -153 -89 -189 -107 l-40
-21 -371 186 c-204 102 -374 186 -377 186 -7 0 -76 -136 -76 -149 0 -6 128
-74 285 -153 157 -78 285 -145 285 -148 0 -4 -46 -5 -102 -4 -219 6 -468 8
-471 3 -2 -2 -21 -35 -42 -74 -72 -133 -98 -180 -105 -190 -4 -5 -24 -41 -45
-80 -21 -38 -78 -142 -127 -229 -48 -87 -86 -161 -84 -164 5 -4 226 -10 630
-14 l219 -3 131 235 c72 129 137 244 144 255 12 20 11 -30 -3 -270 -2 -33 -6
-116 -10 -185 -4 -69 -8 -140 -10 -157 -2 -21 1 -33 8 -34 7 0 47 -2 90 -5 70
-5 77 -4 78 13 1 10 2 32 4 48 1 17 5 93 9 170 4 77 9 160 11 185 2 25 6 99
10 165 9 170 15 258 18 260 24 16 238 135 241 135 3 0 4 -6 1 -12 -2 -7 -6
-74 -10 -148 -5 -125 -8 -171 -20 -350 -2 -36 -7 -121 -10 -190 -4 -69 -8
-142 -10 -162 -2 -33 0 -38 19 -39 11 0 51 -2 89 -4 47 -3 67 0 68 8 2 13 2
26 13 232 4 77 9 165 11 195 2 30 6 118 10 195 3 77 8 154 10 170 2 17 5 72 6
122 l3 92 33 18 c18 10 106 60 195 112 90 52 177 102 193 111 308 178 401 232
407 238 9 9 -73 152 -87 151 -5 0 -50 -24 -100 -53z m-1447 -934 c15 -3 20 -8
13 -16 -5 -6 -46 -76 -90 -156 -45 -80 -86 -152 -91 -160 -6 -8 -14 -25 -20
-38 l-10 -22 -221 4 c-121 3 -222 6 -224 8 -2 2 44 90 103 196 l107 193 205
-3 c113 -1 215 -4 228 -6z"/>
<path d="M3845 3294 c-22 -42 -35 -78 -30 -81 9 -4 784 -453 812 -471 7 -4 14
-55 17 -137 4 -71 8 -159 11 -195 2 -36 7 -110 10 -165 3 -55 7 -136 10 -180
12 -215 18 -321 18 -333 0 -10 17 -12 71 -8 39 3 79 5 90 5 17 1 18 8 12 104
-7 113 -13 211 -21 362 -3 55 -7 132 -10 170 -3 39 -7 114 -10 167 l-5 98 47
-27 c51 -27 186 -104 191 -108 6 -5 10 -47 17 -175 4 -74 8 -151 10 -170 2
-30 6 -96 20 -340 1 -25 3 -71 4 -104 l1 -58 88 6 c48 3 88 5 90 6 3 0 -1 90
-13 285 -2 28 -7 109 -10 180 -4 72 -8 145 -10 164 -3 46 -4 47 154 -237 l133
-241 286 6 c158 3 349 6 424 7 76 0 138 5 138 10 0 7 -35 71 -133 246 -11 19
-33 60 -50 90 -17 30 -56 102 -89 159 -32 57 -58 105 -58 106 0 2 -18 33 -39
70 l-40 68 -183 -3 c-101 -1 -231 -3 -290 -4 -60 -1 -108 -1 -108 1 0 1 132
68 293 149 160 80 293 148 295 149 6 5 -73 155 -81 155 -5 0 -173 -83 -374
-185 -201 -102 -369 -185 -374 -185 -19 0 -240 133 -232 140 4 4 179 94 388
200 209 106 384 196 389 201 9 9 -49 145 -66 155 -4 3 -208 -96 -453 -220
-244 -125 -450 -226 -456 -226 -6 0 -194 106 -418 235 -224 129 -412 235 -417
235 -5 0 -27 -34 -49 -76z m2076 -974 c20 -36 51 -92 69 -125 18 -33 50 -90
71 -127 l38 -68 -72 -1 c-40 0 -140 -2 -223 -5 -113 -3 -154 -1 -161 9 -6 6
-28 46 -50 87 -23 41 -68 123 -101 182 -33 59 -58 109 -56 111 3 2 105 4 227
3 l222 -1 36 -65z"/>
<path d="M3005 2959 c-137 -77 -284 -159 -325 -181 -41 -22 -94 -51 -117 -65
l-42 -25 4 -246 c3 -136 6 -327 7 -424 2 -98 4 -178 6 -178 9 0 104 52 562
307 25 14 74 41 110 61 36 19 67 37 69 38 4 4 3 98 -4 409 -2 66 -3 193 -4
283 -1 89 -4 162 -8 161 -5 0 -120 -63 -258 -140z m95 -321 c1 -84 3 -182 3
-218 l2 -64 -95 -54 c-52 -30 -124 -70 -160 -89 -36 -20 -80 -45 -98 -55 -18
-11 -35 -18 -38 -16 -2 3 -6 102 -8 222 l-5 216 26 17 c57 37 358 201 364 197
4 -2 7 -72 9 -156z"/>
<path d="M3409 3068 c0 -18 -1 -236 -1 -483 l-1 -451 -136 -89 c-197 -128
-374 -244 -553 -361 -87 -57 -158 -108 -158 -113 0 -14 83 -140 92 -141 7 0
66 38 458 295 74 49 168 110 209 137 40 26 77 48 81 48 4 0 7 -61 7 -136 l0
-137 -281 -185 c-155 -101 -306 -201 -336 -220 -97 -63 -94 -54 -41 -132 25
-38 49 -69 53 -70 4 0 114 70 245 156 131 86 256 168 278 182 l39 25 -15 -24
c-25 -37 -218 -358 -247 -409 -14 -25 -30 -52 -35 -62 -9 -13 32 -87 198 -365
115 -191 214 -356 220 -365 10 -15 45 38 226 339 118 196 216 363 217 371 2 7
-62 123 -142 256 -80 133 -146 245 -146 248 0 3 107 -65 238 -151 300 -198
312 -205 321 -195 5 5 27 38 50 73 l41 65 -133 87 c-72 47 -231 151 -352 231
l-220 144 0 137 c0 75 3 137 7 137 4 0 114 -70 245 -157 387 -255 493 -323
501 -323 15 1 94 135 85 147 -4 7 -120 86 -258 176 -137 89 -325 212 -416 272
l-167 109 0 423 c-1 233 -1 450 -1 483 l-1 60 -85 0 -85 0 -1 -32z m109 -1830
c6 -13 22 -40 34 -60 94 -153 173 -292 170 -300 -3 -12 -201 -347 -215 -366
-7 -9 -39 37 -120 170 -60 101 -111 188 -114 194 -4 12 215 384 227 384 4 0
12 -10 18 -22z"/>
<path d="M3729 3073 c-2 -74 -8 -392 -11 -597 l-3 -229 368 -204 c203 -113
370 -203 373 -200 2 2 7 159 10 348 3 189 7 379 8 422 l2 77 -60 34 c-34 18
-199 110 -369 205 -169 94 -309 171 -312 171 -3 0 -5 -12 -6 -27z m396 -395
c88 -49 162 -94 166 -99 3 -6 5 -27 3 -47 -1 -20 -3 -117 -4 -215 -1 -133 -5
-177 -14 -175 -6 2 -95 50 -197 107 l-185 103 2 142 c1 77 3 178 3 224 l1 83
33 -17 c17 -9 104 -57 192 -106z"/>
</g>
</svg>
