<?xml version="1.0" encoding="utf-8"?>
<!-- Generator: Adobe Illustrator 19.2.1, SVG Export Plug-In . SVG Version: 6.00 Build 0)  -->
<svg version="1.1" id="Layer_1" xmlns="http://www.w3.org/2000/svg" xmlns:xlink="http://www.w3.org/1999/xlink" x="0px" y="0px"
	 viewBox="0 0 64 64" style="enable-background:new 0 0 64 64;" xml:space="preserve">
<style type="text/css">
	.st0{fill:#FFFFFF;}
</style>
<g>
	<g>
		<polygon class="st0" points="18,43.5 19.8,52.7 22.6,49.8 19.6,49.3 23.7,45.3 22.4,39 		"/>
		<ellipse transform="matrix(0.707 -0.7072 0.7072 0.707 -14.725 32.0911)" class="st0" cx="31.4" cy="33.8" rx="4.5" ry="4.5"/>
		<path class="st0" d="M23.1,38.3l1.2,6.2l4.5-4.5l-0.2-1.2c-0.5-0.3-0.9-0.6-1.3-1c-0.7-0.7-1.1-1.5-1.4-2.3L23.1,38.3z"/>
		<path class="st0" d="M59.3,8.4c-3.6-3.6-9.4-3.6-13,0L13.9,40.8l1.6,3.7l10.1-9.8C25.4,33,26,31.3,27.2,30c1.3-1.3,3-1.8,4.7-1.7
			l8.5-8.7c1.4-1.4,3.8-1.4,5.2,0c1.4,1.4,1.4,3.8,0,5.2l-8.5,8.7c0.2,1.7-0.4,3.4-1.7,4.7c-1.3,1.3-3,1.8-4.7,1.7l-9,8.7l4.8,0.8
			l22.8-22.8c1.8-1.8,7.9-3.2,9.9-5.2C62.9,17.9,62.9,12,59.3,8.4z"/>
		<polygon class="st0" points="7.8,58 6.5,51.5 2.1,55.9 2.5,58 		"/>
		<polygon class="st0" points="15.1,46.3 14.1,43.9 12.3,45.7 14.7,57.8 19.2,53.3 17.3,44.2 		"/>
		<polygon class="st0" points="13.9,58 11.6,46.3 7.2,50.7 8.7,58 		"/>
	</g>
</g>
</svg>
