<?xml version="1.0" encoding="utf-8"?>
<!-- Generator: Adobe Illustrator 19.2.1, SVG Export Plug-In . SVG Version: 6.00 Build 0)  -->
<svg version="1.1" id="Layer_2" xmlns="http://www.w3.org/2000/svg" xmlns:xlink="http://www.w3.org/1999/xlink" x="0px" y="0px"
	 viewBox="0 0 1320 330" style="enable-background:new 0 0 1320 330;" xml:space="preserve">
<style type="text/css">
	.st0{fill:url(#SVGID_1_);}
	.st1{fill:url(#SVGID_2_);}
	.st2{fill:url(#SVGID_3_);}
	.st3{fill:url(#SVGID_4_);}
	.st4{fill:url(#SVGID_5_);}
	.st5{fill:url(#SVGID_6_);}
	.st6{fill:url(#SVGID_7_);}
	.st7{fill:url(#SVGID_8_);}
	.st8{fill:url(#SVGID_9_);}
	.st9{fill:url(#SVGID_10_);}
	.st10{fill:url(#SVGID_11_);}
	.st11{fill:url(#SVGID_12_);}
	.st12{fill:url(#SVGID_13_);}
	.st13{fill:url(#SVGID_14_);}
	.st14{fill:url(#SVGID_15_);}
	.st15{fill:url(#SVGID_16_);}
	.st16{fill:url(#SVGID_17_);}
	.st17{fill:url(#SVGID_18_);}
	.st18{fill:url(#SVGID_19_);}
	.st19{fill:url(#SVGID_20_);}
	.st20{fill:url(#SVGID_21_);}
	.st21{fill:url(#SVGID_22_);}
	.st22{fill:url(#SVGID_23_);}
	.st23{fill:url(#SVGID_24_);}
	.st24{fill:url(#SVGID_25_);}
	.st25{fill:url(#SVGID_26_);}
	.st26{fill:url(#SVGID_27_);}
	.st27{fill:url(#SVGID_28_);}
	.st28{fill:url(#SVGID_29_);}
	.st29{fill:url(#SVGID_30_);}
	.st30{fill:url(#SVGID_31_);}
	.st31{fill:url(#SVGID_32_);}
	.st32{fill:url(#SVGID_33_);}
	.st33{fill:url(#SVGID_34_);}
	.st34{fill:url(#SVGID_35_);}
	.st35{fill:url(#SVGID_36_);}
	.st36{fill:url(#SVGID_37_);}
	.st37{fill:url(#SVGID_38_);}
	.st38{fill:url(#SVGID_39_);}
	.st39{fill:url(#SVGID_40_);}
	.st40{fill:url(#SVGID_41_);}
	.st41{fill:url(#SVGID_42_);}
	.st42{fill:url(#SVGID_43_);}
	.st43{fill:url(#SVGID_44_);}
	.st44{fill:url(#SVGID_45_);}
	.st45{fill:url(#SVGID_46_);}
	.st46{fill:url(#SVGID_47_);}
	.st47{fill:url(#SVGID_48_);}
	.st48{fill:url(#SVGID_49_);}
	.st49{fill:url(#SVGID_50_);}
	.st50{fill:url(#SVGID_51_);}
	.st51{fill:url(#SVGID_52_);}
	.st52{fill:url(#SVGID_53_);}
	.st53{fill:url(#SVGID_54_);}
	.st54{fill:url(#SVGID_55_);}
	.st55{fill:url(#SVGID_56_);}
</style>
<g>
	<linearGradient id="SVGID_1_" gradientUnits="userSpaceOnUse" x1="200.6779" y1="15" x2="200.6779" y2="321.4719">
		<stop  offset="0.2266" style="stop-color:#0C0014"/>
		<stop  offset="0.7783" style="stop-color:#131C25"/>
	</linearGradient>
	<path class="st0" d="M192.8,198c0.6,2.3,1.1,4.6,1.5,7c0.2,1,0.5,2.4,0.5,3.4c0.5,0.9,0.4,1.3-0.2,1.2c-0.8,0-0.5,0.1,0.9,0.4
		c2.3,0.8,4.7,1.4,7.1,2.2c2,0.7,4,1.4,6,2.1C203.5,208.7,198.1,203.3,192.8,198z"/>
	<linearGradient id="SVGID_2_" gradientUnits="userSpaceOnUse" x1="112.5959" y1="15" x2="112.5959" y2="321.4719">
		<stop  offset="0.2266" style="stop-color:#0C0014"/>
		<stop  offset="0.7783" style="stop-color:#131C25"/>
	</linearGradient>
	<path class="st1" d="M127.7,161.2c-3.3-2.2-6.5-4.5-10-6.4c-2.8-1.5-4.2-0.9-7,0.3c-1.6,0.7-3.2,1.5-4.7,2.3
		c-0.6,0.7-1.4,1.1-2.2,1.3c-2.2,1.3-4.4,2.8-6.3,4.5C107.5,162.3,117.6,161.6,127.7,161.2z"/>
	<linearGradient id="SVGID_3_" gradientUnits="userSpaceOnUse" x1="121.993" y1="15" x2="121.993" y2="321.4719">
		<stop  offset="0.2266" style="stop-color:#0C0014"/>
		<stop  offset="0.7783" style="stop-color:#131C25"/>
	</linearGradient>
	<path class="st2" d="M111.7,198.7c1.1-4,2.6-8.2,5.3-10.7c3.5-3.4,9.8-3.9,14.4-4.7c5.3-1,10.6-2,15.4-4.6c3.5-3.5,7.1-7,10.7-10.3
		c-3.7-0.1-7.4-0.2-11.1-0.2c-0.4,0.3-0.8,0.6-1.4,0.7c-10.4,2.7-18.5,7.7-27,14.1c-4.1,3.1-7.6,0.2-11.6-1.8
		c-0.6-0.3-1.1-0.6-1.7-0.8c-0.1,0.1-0.1,0.2-0.2,0.2c-5.6,6.1-11.5,11.9-17.6,17.4C95,198.2,103.3,198.5,111.7,198.7z"/>
	<linearGradient id="SVGID_4_" gradientUnits="userSpaceOnUse" x1="89.2348" y1="15" x2="89.2348" y2="321.4719">
		<stop  offset="0.2266" style="stop-color:#0C0014"/>
		<stop  offset="0.7783" style="stop-color:#131C25"/>
	</linearGradient>
	<path class="st3" d="M96.9,87.4c-5.3-0.7-10.6-1.4-15.9-2.1c0.2,4.2,1.2,8.2,3.3,12c0,0,0,0.1,0,0.1c4.4,0.7,8.7,1.3,13.1,1.8
		C97.7,95.4,97.4,91.4,96.9,87.4z"/>
	<linearGradient id="SVGID_5_" gradientUnits="userSpaceOnUse" x1="121.9864" y1="15" x2="121.9864" y2="321.4719">
		<stop  offset="0.2266" style="stop-color:#0C0014"/>
		<stop  offset="0.7783" style="stop-color:#131C25"/>
	</linearGradient>
	<path class="st4" d="M103.8,150.4c3.5-2,7.4-3.7,10.8-3.8c5.3-0.1,10.5,4.4,14.6,7.2c4.3,2.9,8.5,5.8,13.5,7.1
		c4.8,0,9.7,0.1,14.5,0.2c-2.6-2.8-5.2-5.5-7.9-8.2c-0.5,0-1-0.2-1.5-0.5c-4.7-2.8-9.7-5-15-6.6c-4.8-1.4-9.5-1.8-14.4-2.6
		c-5-0.8-5.4-6-6.7-10.1c-0.1-0.4-0.3-0.8-0.4-1.2c-0.1,0-0.2,0-0.3,0c-8.2,0.4-16.3,0.3-24.5-0.1
		C92.4,138.1,98.1,144.3,103.8,150.4z"/>
	<linearGradient id="SVGID_6_" gradientUnits="userSpaceOnUse" x1="113.119" y1="15" x2="113.119" y2="321.4719">
		<stop  offset="0.2266" style="stop-color:#0C0014"/>
		<stop  offset="0.7783" style="stop-color:#131C25"/>
	</linearGradient>
	<path class="st5" d="M126.3,168.4c-8.8,0.3-17.6,0.9-26.4,1.8c2.3,1,4.6,2.1,6.8,3.1c1.6,0.8,5.9,2.1,7.1,3.5
		c0.2-0.2,0.4-0.3,0.6-0.5c0.8-0.7,1.7-1.4,2.6-2C120,172.1,123.1,170.1,126.3,168.4z"/>
	<linearGradient id="SVGID_7_" gradientUnits="userSpaceOnUse" x1="129.7988" y1="15" x2="129.7988" y2="321.4719">
		<stop  offset="0.2266" style="stop-color:#0C0014"/>
		<stop  offset="0.7783" style="stop-color:#131C25"/>
	</linearGradient>
	<path class="st6" d="M141.3,135.1c-0.7-3.6-1.4-7.3-2.4-10.9c-0.2-0.9-0.5-2.5-1.1-3.2c-0.7-0.8-2.5-1.4-3.4-1.8
		c-1.9-0.8-3.9-1.5-5.9-2.1c-0.9,0.1-1.8-0.2-2.5-0.7c-2.5-0.6-5.1-1.1-7.7-1.2C126.2,121.6,133.9,128.2,141.3,135.1z"/>
	<linearGradient id="SVGID_8_" gradientUnits="userSpaceOnUse" x1="131.5775" y1="15" x2="131.5775" y2="321.4719">
		<stop  offset="0.2266" style="stop-color:#0C0014"/>
		<stop  offset="0.7783" style="stop-color:#131C25"/>
	</linearGradient>
	<path class="st7" d="M122.9,215.5c2.1-0.8,4.2-1.6,6.4-2.4c2.2-0.8,5.4-2.5,7.7-2.5c0.2-0.1,0.4-0.2,0.5-0.2c0-0.1,0-0.1,0-0.2
		c-0.2-1.1,0.3-2.5,0.4-3.7c0.5-3.7,1.3-7.3,2.4-10.9C134.3,202.1,128.5,208.7,122.9,215.5z"/>
	<linearGradient id="SVGID_9_" gradientUnits="userSpaceOnUse" x1="204.5574" y1="15" x2="204.5574" y2="321.4719">
		<stop  offset="0.2266" style="stop-color:#0C0014"/>
		<stop  offset="0.7783" style="stop-color:#131C25"/>
	</linearGradient>
	<path class="st8" d="M211.7,195c-1.2-2.7-2.1-3.3-5-4c-4.5-1.2-9.2-1.8-13.7-2.7c7.9,7.8,15.7,15.6,23.1,23.8
		c0-2.8-0.6-5.5-1.4-8.3c-0.6-0.7-0.8-1.6-0.7-2.5C213.4,199.1,212.6,197,211.7,195z"/>
	<linearGradient id="SVGID_10_" gradientUnits="userSpaceOnUse" x1="165.5324" y1="15" x2="165.5324" y2="321.4719">
		<stop  offset="0.2266" style="stop-color:#0C0014"/>
		<stop  offset="0.7783" style="stop-color:#131C25"/>
	</linearGradient>
	<path class="st9" d="M157.5,270.3c0,0,0,0.1,0,0.1c1.3,4.1,3.5,7.7,6.4,10.7c3.2-4.3,6.4-8.6,9.6-12.9c-2.5-3.1-5.2-6.1-8.2-8.6
		C162.6,263.1,160,266.7,157.5,270.3z"/>
	<linearGradient id="SVGID_11_" gradientUnits="userSpaceOnUse" x1="184.2038" y1="15" x2="184.2038" y2="321.4719">
		<stop  offset="0.2266" style="stop-color:#0C0014"/>
		<stop  offset="0.7783" style="stop-color:#131C25"/>
	</linearGradient>
	<path class="st10" d="M199.4,218.6c-0.2-0.1-0.4-0.1-0.6-0.2c-3.9-1.3-9.5-1.6-10.7-6.2c-0.6-2.5-0.6-5.2-1.1-7.7
		c-0.5-2.4-1.1-4.8-1.8-7.2c-1.3-4.2-3.1-8.1-5.2-11.9c-3.8-3.8-7.6-7.6-11.3-11.5c-0.1,3.7-0.2,7.5-0.2,11.3c0.6,0.4,1.1,1,1.3,2
		c1.4,5.7,4.7,10.3,8.1,15c2.8,3.9,7.2,9,7.1,14.1c-0.1,3.5-1.7,7.3-3.6,10.9c6.1,5.5,12.2,10.9,18.3,16.4c0.1,0,0.2,0,0.3-0.1
		c-0.6-8.1-0.8-16.3-0.5-24.4C199.3,218.8,199.4,218.7,199.4,218.6z"/>
	<linearGradient id="SVGID_12_" gradientUnits="userSpaceOnUse" x1="157.8112" y1="15" x2="157.8112" y2="321.4719">
		<stop  offset="0.2266" style="stop-color:#0C0014"/>
		<stop  offset="0.7783" style="stop-color:#131C25"/>
	</linearGradient>
	<path class="st11" d="M161.4,207.6c-1.2,2.1-2.5,4.1-4,6.1c-0.6,0.8-1.3,1.9-2,2.6c-0.3,1-0.6,1.2-1,0.6c-0.5-0.6-0.4-0.3,0.4,0.9
		c1.2,2.4,2.6,4.7,3.8,7.1c0.8,1.7,1.7,3.4,2.4,5.1C161.4,222.6,161.4,215.1,161.4,207.6z"/>
	<linearGradient id="SVGID_13_" gradientUnits="userSpaceOnUse" x1="126.2583" y1="15" x2="126.2583" y2="321.4719">
		<stop  offset="0.2266" style="stop-color:#0C0014"/>
		<stop  offset="0.7783" style="stop-color:#131C25"/>
	</linearGradient>
	<path class="st12" d="M136.2,189.5c-3.6,0.7-7.3,1.4-10.9,2.4c-0.9,0.2-2.5,0.5-3.2,1.1c-0.8,0.7-1.4,2.5-1.8,3.4
		c-0.8,1.9-1.5,3.9-2.1,5.9c0.1,0.9-0.2,1.8-0.7,2.5c-0.6,2.5-1.1,5.1-1.2,7.7C122.7,204.6,129.3,196.9,136.2,189.5z"/>
	<linearGradient id="SVGID_14_" gradientUnits="userSpaceOnUse" x1="93.4519" y1="15" x2="93.4519" y2="321.4719">
		<stop  offset="0.2266" style="stop-color:#0C0014"/>
		<stop  offset="0.7783" style="stop-color:#131C25"/>
	</linearGradient>
	<path class="st13" d="M88.6,233.9c-0.7,5.3-1.4,10.6-2.1,15.9c4.2-0.2,8.2-1.2,12-3.3c0,0,0.1,0,0.1,0c0.7-4.4,1.3-8.7,1.8-13.1
		C96.6,233.1,92.5,233.4,88.6,233.9z"/>
	<linearGradient id="SVGID_15_" gradientUnits="userSpaceOnUse" x1="78.6894" y1="15" x2="78.6894" y2="321.4719">
		<stop  offset="0.2266" style="stop-color:#0C0014"/>
		<stop  offset="0.7783" style="stop-color:#131C25"/>
	</linearGradient>
	<path class="st14" d="M78.6,128.5c0,0,0,0.1,0,0.1C78.6,128.6,78.7,128.6,78.6,128.5c0.1,0.1,0.1,0,0.1,0
		C78.7,128.4,78.7,128.4,78.6,128.5z"/>
	<linearGradient id="SVGID_16_" gradientUnits="userSpaceOnUse" x1="125.2033" y1="15" x2="125.2033" y2="321.4719">
		<stop  offset="0.2266" style="stop-color:#0C0014"/>
		<stop  offset="0.7783" style="stop-color:#131C25"/>
	</linearGradient>
	<path class="st15" d="M124.3,136.8c3.7,0.5,7.3,1.3,10.9,2.4c-6.5-6-13.1-11.8-19.9-17.3c0.8,2.1,1.6,4.2,2.4,6.4
		c0.8,2.2,2.5,5.4,2.5,7.7c0.1,0.2,0.2,0.4,0.2,0.5c0.1,0,0.1,0,0.2,0C121.7,136.2,123.1,136.6,124.3,136.8z"/>
	<linearGradient id="SVGID_17_" gradientUnits="userSpaceOnUse" x1="209.6633" y1="15" x2="209.6633" y2="321.4719">
		<stop  offset="0.2266" style="stop-color:#0C0014"/>
		<stop  offset="0.7783" style="stop-color:#131C25"/>
	</linearGradient>
	<path class="st16" d="M213.3,142.7c-2.5,0.6-5.2,0.6-7.7,1.1c-2.4,0.5-4.8,1.1-7.2,1.8c-4.2,1.3-8.1,3.1-11.9,5.2
		c-3.8,3.8-7.6,7.6-11.5,11.3c3.7,0.1,7.5,0.2,11.3,0.2c0.4-0.6,1-1.1,2-1.3c5.7-1.4,10.3-4.7,15-8.1c3.9-2.8,9-7.2,14.1-7.1
		c3.5,0.1,7.3,1.7,10.9,3.6c5.5-6.1,10.9-12.2,16.4-18.3c0-0.1,0-0.2-0.1-0.3c-8.1,0.6-16.3,0.8-24.4,0.5c-0.1,0-0.2,0-0.2,0
		c-0.1,0.2-0.1,0.4-0.2,0.6C218.3,136,218,141.5,213.3,142.7z"/>
	<linearGradient id="SVGID_18_" gradientUnits="userSpaceOnUse" x1="172.0936" y1="15" x2="172.0936" y2="321.4719">
		<stop  offset="0.2266" style="stop-color:#0C0014"/>
		<stop  offset="0.7783" style="stop-color:#131C25"/>
	</linearGradient>
	<path class="st17" d="M175.6,109.6c-0.7-1.6-1.5-3.2-2.3-4.7c-0.7-0.6-1.2-1.4-1.3-2.2c-1.3-2.2-2.8-4.4-4.5-6.3
		c1.1,10,1.8,20.1,2.1,30.2c2.2-3.3,4.5-6.5,6.4-10C177.4,113.8,176.8,112.4,175.6,109.6z"/>
	<linearGradient id="SVGID_19_" gradientUnits="userSpaceOnUse" x1="218.5301" y1="15" x2="218.5301" y2="321.4719">
		<stop  offset="0.2266" style="stop-color:#0C0014"/>
		<stop  offset="0.7783" style="stop-color:#131C25"/>
	</linearGradient>
	<path class="st18" d="M214.1,154.2c-4.2,2.4-8.1,5.4-12.1,8.1c11-0.1,22.1-0.1,33.1,0.5c-2-1.9-4.3-3.4-6.7-4.8
		c-0.9-0.1-1.7-0.6-2.3-1.3c-1.7-0.9-3.4-1.7-5.1-2.4C218,153.1,216.9,152.6,214.1,154.2z"/>
	<linearGradient id="SVGID_20_" gradientUnits="userSpaceOnUse" x1="201.2957" y1="15" x2="201.2957" y2="321.4719">
		<stop  offset="0.2266" style="stop-color:#0C0014"/>
		<stop  offset="0.7783" style="stop-color:#131C25"/>
	</linearGradient>
	<path class="st19" d="M192.1,124.1c-1.2,4.5-1.8,9.2-2.7,13.7c7.8-7.9,15.6-15.7,23.8-23.1c-2.8,0-5.5,0.6-8.3,1.4
		c-0.7,0.6-1.6,0.8-2.5,0.7c-2.1,0.7-4.3,1.4-6.3,2.4C193.4,120.3,192.8,121.2,192.1,124.1z"/>
	<linearGradient id="SVGID_21_" gradientUnits="userSpaceOnUse" x1="60.6786" y1="15" x2="60.6786" y2="321.4719">
		<stop  offset="0.2266" style="stop-color:#0C0014"/>
		<stop  offset="0.7783" style="stop-color:#131C25"/>
	</linearGradient>
	<path class="st20" d="M62.7,158.9c-4.2,3.3-8.5,6.5-12.7,9.8c3.1,2.9,6.7,5,10.9,6.2c0,0,0,0,0.1,0c3.6-2.6,7.1-5.2,10.5-8
		C68.9,164,65.9,161.4,62.7,158.9z"/>
	<linearGradient id="SVGID_22_" gradientUnits="userSpaceOnUse" x1="219.9821" y1="15" x2="219.9821" y2="321.4719">
		<stop  offset="0.2266" style="stop-color:#0C0014"/>
		<stop  offset="0.7783" style="stop-color:#131C25"/>
	</linearGradient>
	<path class="st21" d="M208.7,169.3c2.1,1.2,4.1,2.5,6.1,4c0.8,0.6,1.9,1.3,2.6,2c1,0.3,1.2,0.6,0.6,1c-0.6,0.5-0.3,0.4,0.9-0.4
		c2.4-1.2,4.7-2.6,7.1-3.8c1.7-0.8,3.4-1.7,5.1-2.4C223.7,169.4,216.2,169.3,208.7,169.3z"/>
	<linearGradient id="SVGID_23_" gradientUnits="userSpaceOnUse" x1="172.8322" y1="15" x2="172.8322" y2="321.4719">
		<stop  offset="0.2266" style="stop-color:#0C0014"/>
		<stop  offset="0.7783" style="stop-color:#131C25"/>
	</linearGradient>
	<path class="st22" d="M168.5,200.9c0.1,11,0.1,22.1-0.5,33.1c1.9-2,3.4-4.3,4.8-6.7c0.1-0.9,0.6-1.7,1.3-2.3
		c0.9-1.7,1.7-3.4,2.4-5.1c1.1-2.9,1.6-4,0-6.7C174.2,208.8,171.2,204.9,168.5,200.9z"/>
	<linearGradient id="SVGID_24_" gradientUnits="userSpaceOnUse" x1="158.1181" y1="15" x2="158.1181" y2="321.4719">
		<stop  offset="0.2266" style="stop-color:#0C0014"/>
		<stop  offset="0.7783" style="stop-color:#131C25"/>
	</linearGradient>
	<path class="st23" d="M153.9,112.7c0.2,0.2,0.3,0.4,0.5,0.6c0.7,0.8,1.4,1.7,2,2.6c2.2,2.9,4.2,6,6,9.3c-0.3-8.8-0.9-17.6-1.8-26.4
		c-1,2.3-2.1,4.6-3.1,6.8C156.6,107.2,155.3,111.5,153.9,112.7z"/>
	<linearGradient id="SVGID_25_" gradientUnits="userSpaceOnUse" x1="147.35" y1="15" x2="147.35" y2="321.4719">
		<stop  offset="0.2266" style="stop-color:#0C0014"/>
		<stop  offset="0.7783" style="stop-color:#131C25"/>
	</linearGradient>
	<path class="st24" d="M132,110.5c4,1.1,8.2,2.6,10.7,5.3c3.4,3.5,3.9,9.8,4.7,14.4c1,5.3,2,10.6,4.6,15.4c3.5,3.5,7,7.1,10.3,10.7
		c0.1-3.7,0.2-7.4,0.2-11.1c-0.3-0.4-0.6-0.8-0.7-1.4c-2.7-10.4-7.7-18.5-14.1-27c-3.1-4.1-0.2-7.6,1.8-11.6
		c0.3-0.6,0.6-1.1,0.8-1.7c-0.1-0.1-0.2-0.1-0.2-0.2c-6.1-5.6-11.9-11.5-17.4-17.6C132.6,93.9,132.3,102.2,132,110.5z"/>
	<linearGradient id="SVGID_26_" gradientUnits="userSpaceOnUse" x1="163.8214" y1="15" x2="163.8214" y2="321.4719">
		<stop  offset="0.2266" style="stop-color:#0C0014"/>
		<stop  offset="0.7783" style="stop-color:#131C25"/>
	</linearGradient>
	<path class="st25" d="M171.8,61.6c-3.3-4.2-6.5-8.5-9.8-12.7c-2.9,3.1-5,6.7-6.2,10.9c0,0,0,0,0,0.1c2.6,3.6,5.2,7.1,8,10.5
		C166.8,67.8,169.4,64.7,171.8,61.6z"/>
	<linearGradient id="SVGID_27_" gradientUnits="userSpaceOnUse" x1="184.1631" y1="15" x2="184.1631" y2="321.4719">
		<stop  offset="0.2266" style="stop-color:#0C0014"/>
		<stop  offset="0.7783" style="stop-color:#131C25"/>
	</linearGradient>
	<path class="st26" d="M184.2,113.6c0.1,5.3-4.4,10.5-7.2,14.6c-2.9,4.3-5.8,8.5-7.1,13.5c0,5.2-0.1,10.4-0.3,15.6
		c2.9-2.7,5.8-5.5,8.7-8.3c-0.1-0.7,0-1.5,0.5-2.3c3.1-5,4-10.8,4.9-16.5c0.8-4.6,1.2-10.9,4.5-14.4c2.5-2.6,6.7-4.2,10.6-5.4
		c-0.4-7.8-0.8-15.7-1.3-23.5c-5.7,5.3-11.4,10.6-17.2,16C182.3,106.2,184.1,110.1,184.2,113.6z"/>
	<linearGradient id="SVGID_28_" gradientUnits="userSpaceOnUse" x1="207.2243" y1="15" x2="207.2243" y2="321.4719">
		<stop  offset="0.2266" style="stop-color:#0C0014"/>
		<stop  offset="0.7783" style="stop-color:#131C25"/>
	</linearGradient>
	<path class="st27" d="M211.1,135.3c0.8-2.3,1.4-4.7,2.2-7.1c0.7-2,1.4-4,2.1-6c-5.6,5.1-10.9,10.4-16.3,15.8c2.3-0.6,4.6-1.1,7-1.5
		c1-0.2,2.4-0.5,3.4-0.5c0.9-0.5,1.3-0.4,1.2,0.2C210.7,137,210.8,136.7,211.1,135.3z"/>
	<linearGradient id="SVGID_29_" gradientUnits="userSpaceOnUse" x1="241.1797" y1="15" x2="241.1797" y2="321.4719">
		<stop  offset="0.2266" style="stop-color:#0C0014"/>
		<stop  offset="0.7783" style="stop-color:#131C25"/>
	</linearGradient>
	<path class="st28" d="M233.2,98.4c4.4-0.6,8.7-1.2,13.1-2c0,0,0-0.1,0.1-0.1c2-3.8,2.9-7.9,3-12c-5.3,0.8-10.6,1.6-15.9,2.4
		C233.1,90.5,232.8,94.6,233.2,98.4z"/>
	<linearGradient id="SVGID_30_" gradientUnits="userSpaceOnUse" x1="147.2638" y1="15" x2="147.2638" y2="321.4719">
		<stop  offset="0.2266" style="stop-color:#0C0014"/>
		<stop  offset="0.7783" style="stop-color:#131C25"/>
	</linearGradient>
	<path class="st29" d="M148.7,213.5c5.5-7.6,10-15.1,12.7-24c0-5.1,0-10.3,0.2-15.4c-2.5,2.4-5,4.8-7.5,7.2c0,0.5-0.2,1-0.5,1.5
		c-2.8,4.7-5,9.7-6.6,15c-1.4,4.8-1.8,9.5-2.6,14.4c-0.8,5-6,5.4-10.1,6.7c-0.4,0.1-0.8,0.3-1.2,0.4c0,0.1,0,0.2,0,0.3
		c0.4,8.7,0.3,17.4-0.2,26.1c0.1,0,0.3,0.1,0.4,0.1c5.7-6.6,11.6-12.9,18-18.9c0.1-0.1,0.1-0.1,0.2-0.1c-0.3-0.6-0.6-1.2-0.9-1.8
		C148.6,221.1,145.6,217.7,148.7,213.5z"/>
	<linearGradient id="SVGID_31_" gradientUnits="userSpaceOnUse" x1="527.0328" y1="15" x2="527.0328" y2="321.4719">
		<stop  offset="0.2266" style="stop-color:#0C0014"/>
		<stop  offset="0.7783" style="stop-color:#131C25"/>
	</linearGradient>
	<polygon class="st30" points="536.6,121.4 536.2,99.9 517.5,110.4 517.8,131.8 	"/>
	<linearGradient id="SVGID_32_" gradientUnits="userSpaceOnUse" x1="239.4443" y1="15" x2="239.4443" y2="321.4719">
		<stop  offset="0.2266" style="stop-color:#0C0014"/>
		<stop  offset="0.7783" style="stop-color:#131C25"/>
	</linearGradient>
	<path class="st31" d="M234.4,245.2c0,0,0.1,0,0.1,0.1c3.8,2,7.9,2.9,12,3c-0.8-5.3-1.6-10.6-2.4-15.9c-4-0.4-8-0.7-11.9-0.3
		C232.9,236.5,233.6,240.8,234.4,245.2z"/>
	<linearGradient id="SVGID_33_" gradientUnits="userSpaceOnUse" x1="498.6686" y1="15" x2="498.6686" y2="321.4719">
		<stop  offset="0.2266" style="stop-color:#0C0014"/>
		<stop  offset="0.7783" style="stop-color:#131C25"/>
	</linearGradient>
	<path class="st32" d="M501.9,159.4c-1-0.6-2.1-0.9-3.2-0.9c-2.3,0-4.4,1.2-5.6,3.2c-0.9,1.5-1.1,3.2-0.6,4.9c0.4,1.7,1.5,3,3,3.9
		c1,0.6,2.1,0.9,3.2,0.9c2.3,0,4.4-1.2,5.6-3.2c0.9-1.5,1.1-3.2,0.6-4.9C504.4,161.7,503.4,160.3,501.9,159.4z"/>
	<linearGradient id="SVGID_34_" gradientUnits="userSpaceOnUse" x1="498.67" y1="15" x2="498.67" y2="321.4719">
		<stop  offset="0.2266" style="stop-color:#0C0014"/>
		<stop  offset="0.7783" style="stop-color:#131C25"/>
	</linearGradient>
	<polygon class="st33" points="509.7,40.3 498.7,21.9 487.6,40.3 498.7,58.7 	"/>
	<linearGradient id="SVGID_35_" gradientUnits="userSpaceOnUse" x1="1109.936" y1="15" x2="1109.936" y2="321.4719">
		<stop  offset="0.2266" style="stop-color:#0C0014"/>
		<stop  offset="0.7783" style="stop-color:#131C25"/>
	</linearGradient>
	<polygon class="st34" points="1097,132.2 1105.5,147.4 1122.9,147.1 1114.4,131.9 	"/>
	<linearGradient id="SVGID_36_" gradientUnits="userSpaceOnUse" x1="830.5152" y1="15" x2="830.5153" y2="321.4719">
		<stop  offset="0.2266" style="stop-color:#0C0014"/>
		<stop  offset="0.7783" style="stop-color:#131C25"/>
	</linearGradient>
	<polygon class="st35" points="847.4,169.6 847.4,160.1 878,160.1 903.4,134.7 867.3,134.7 845.7,156.3 839,149.6 860.6,128 
		860.6,92.1 835.1,117.6 835.1,148.1 825.6,148.1 825.6,117.6 800.2,92.2 800.2,128.2 821.8,149.8 815.1,156.5 793.5,134.9 
		757.6,134.9 783.1,160.4 813.7,160.4 813.7,169.9 783.1,169.9 757.7,195.3 793.7,195.3 815.4,173.7 822.1,180.4 800.4,202 
		800.4,237.9 825.9,212.4 825.9,181.9 835.4,181.9 835.4,212.4 860.8,237.8 860.8,201.8 839.2,180.2 845.9,173.5 867.5,195.1 
		903.5,195.1 878,169.6 	"/>
	<linearGradient id="SVGID_37_" gradientUnits="userSpaceOnUse" x1="606.6629" y1="15" x2="606.6629" y2="321.4719">
		<stop  offset="0.2266" style="stop-color:#0C0014"/>
		<stop  offset="0.7783" style="stop-color:#131C25"/>
	</linearGradient>
	<polygon class="st36" points="612.2,112.2 622.6,93.5 601.1,93.1 590.7,111.8 	"/>
	<linearGradient id="SVGID_38_" gradientUnits="userSpaceOnUse" x1="555.3956" y1="15" x2="555.3957" y2="321.4719">
		<stop  offset="0.2266" style="stop-color:#0C0014"/>
		<stop  offset="0.7783" style="stop-color:#131C25"/>
	</linearGradient>
	<polygon class="st37" points="555.4,154 537,165 555.4,176 573.8,165 	"/>
	<linearGradient id="SVGID_39_" gradientUnits="userSpaceOnUse" x1="1197.8292" y1="15" x2="1197.8293" y2="321.4719">
		<stop  offset="0.2266" style="stop-color:#0C0014"/>
		<stop  offset="0.7783" style="stop-color:#131C25"/>
	</linearGradient>
	<polygon class="st38" points="1210.8,197.8 1202.3,182.6 1184.9,182.9 1193.4,198.1 	"/>
	<linearGradient id="SVGID_40_" gradientUnits="userSpaceOnUse" x1="1197.8292" y1="15" x2="1197.8293" y2="321.4719">
		<stop  offset="0.2266" style="stop-color:#0C0014"/>
		<stop  offset="0.7783" style="stop-color:#131C25"/>
	</linearGradient>
	<polygon class="st39" points="1202.3,147.4 1210.8,132.2 1193.4,131.9 1184.9,147.1 	"/>
	<linearGradient id="SVGID_41_" gradientUnits="userSpaceOnUse" x1="660" y1="15" x2="660" y2="321.4719">
		<stop  offset="0.2266" style="stop-color:#0C0014"/>
		<stop  offset="0.7783" style="stop-color:#131C25"/>
	</linearGradient>
	<path class="st40" d="M-5-5v340h1330V-5H-5z M1173.4,61.3l0.1,0.4l11,41l12.3-21.3l-8.4-31.2l8.9-2.4l6,22.3L1219,43l8,4.6
		l-15.7,27.2l22.3-6l2.4,8.9l-31.2,8.4l-12.3,21.3l41.4-11.1l2.4,8.9l-0.4,0.1l-49.9,13.4l-19.9,34.5l-8-4.6L1178,114l-13.5-50.3
		L1173.4,61.3z M1226.2,123.2l-18.6,33.4l-38.2-0.6l18.6-33.4L1226.2,123.2z M1207.7,173.3l0.1,0.2l18.4,33.2l-38.2,0.6l-0.1-0.2
		l-18.4-33.2L1207.7,173.3z M1167.5,168.7c-1,3.6-3.3,6.7-6.6,8.6c-2.1,1.2-4.6,1.9-7.1,1.9c-5,0-9.7-2.7-12.3-7.1
		c-1.9-3.3-2.4-7.1-1.4-10.7c1-3.6,3.3-6.7,6.6-8.6c2.1-1.2,4.6-1.9,7.1-1.9c5,0,9.7,2.7,12.3,7.1
		C1168,161.2,1168.5,165,1167.5,168.7z M1173.6,114.3l-19.7,32.8l-19.7-32.8l19.7-32.8L1173.6,114.3z M1103,86l-31.2-8.4l2.4-8.9
		l22.3,6l-15.7-27.2l8-4.6l15.7,27.2l6-22.3l8.9,2.4l-8.4,31.2l12.3,21.3l11.1-41.4l8.9,2.4l-0.1,0.4l-13.4,49.9l19.9,34.5l-8,4.6
		l-19.9-34.5l-50.3-13.5l2.4-8.9l0.4,0.1l41,11L1103,86z M1138.3,156l-38.2,0.6l-18.6-33.4l38.2-0.6L1138.3,156z M545.2,126.4
		l-0.2,0.1l-35.4,19.6l-0.7-40.7l0.2-0.1l35.4-19.6L545.2,126.4z M511.6,172.5c-2.7,4.6-7.6,7.5-12.9,7.5c-2.6,0-5.2-0.7-7.5-2
		c-3.5-2-5.9-5.2-7-9.1c-1-3.9-0.5-7.9,1.5-11.3c2.7-4.6,7.6-7.5,12.9-7.5c2.6,0,5.2,0.7,7.5,2C513.3,156.2,515.7,165.3,511.6,172.5
		z M458.4,66l36,23.6V76.2l-33.6-22.1l4.7-7.1l26.8,17.6l-14.6-24.3l21-34.9l21,34.9l-14.6,24.3L531.9,47l4.7,7.1l-33.6,22.1v13.5
		l36-23.6l4.7,7.1l-40.7,26.7v46h-8.5v-46l-40.7-26.7L458.4,66z M452.8,85.6l35.6,19.8l-0.7,40.7l-35.6-19.8L452.8,85.6z
		 M401.2,84.5l13.8,24.8l-1.8-32.1l8.5-0.5l2.3,40.2l11.7,6.7l-2.5-43l8.5-0.5l2.8,48.6l39.8,23l-4.3,7.4l-39.8-23L396.7,158
		l-3.8-7.6l38.5-19.4l-11.7-6.7l-35.9,18.1l-3.8-7.6l28.7-14.4l-28.3,0.5l-19.8-35.6L401.2,84.5z M476.9,165l-34.9,21L407,165
		l34.9-21L476.9,165z M303,171.1c-1.4,1.5-3.7,2.4-5.9,2.5c-2.8,0.8-6.2,0.2-7.7-2.3c-0.2-0.4-0.4-0.7-0.6-1.1
		c-2.9,3.3-6.4,5.9-10.3,7.8c6.4,4.1,13,8,19.7,11.5c4.1,2.2,0.5,8.3-3.6,6.2c-13.7-7.2-26.6-15.7-38.8-25.1
		c-0.6,0.6-1.4,0.9-2.5,0.8c3.1,2.7,6.2,5.4,9.3,8.1c6.5,5.6,13,11.3,19.5,16.9c3.5,3-1.6,8-5,5c-7.3-6.3-14.6-12.6-21.9-18.9
		c-4-3.4-8.1-6.8-11.9-10.4c0,0-0.1-0.1-0.1-0.1c-0.2,0.2-0.5,0.3-0.8,0.5c-2.6,1.1-5.2,2.2-7.7,3.4c5.6,5.9,11.6,11.5,17.8,16.7
		c3,0.1,6,1.6,7.4,4.4c2.3,4.6,0.3,10.5-4.6,12.3c-4.5,1.7-9.6-1.2-10.4-5.7c0-0.1-0.1-0.1-0.1-0.2c-7.5,0.4-14.9,0.8-22.4,1.2
		c0.8,3.5,1.2,7.1,0.8,10.7c0.4-0.1,0.8-0.2,1.2-0.2c8.5-1.5,17.3-1.4,25.9-1.3c8,0.1,16.1,0.4,24.1,1.2c4.5,0.5,4.6,7.6,0,7.1
		c-14.9-1.5-30.6-2.3-45.5-0.6c-1.3,0.1-2.6,0.3-3.9,0.6c0.9,1.1,1.8,2.2,2.7,3.4c8.7-1.8,17.9-0.1,26.6,0.6
		c8.9,0.7,17.9,1.2,26.4,4.1c4.3,1.5,2.5,8.4-1.9,6.9c-7.9-2.7-16.2-3.2-24.5-3.9c-0.9-0.1-1.8-0.2-2.7-0.3
		c0.9,5.8,1.7,11.7,2.6,17.5c0,0.1,0,0.1,0,0.2c0.2-0.1,0.4-0.1,0.6-0.1c3.8-0.6,7.7,2.4,7.9,6.3c0,0.1,0,0.2,0,0.3
		c1.5,3.2,0.4,7.5-3.4,8.6c-2.4,0.6-4.9-0.5-6.9-2.3c-2.7-1.4-4.7-4.4-3.8-7.4c0.1-0.3,0.2-0.6,0.4-0.9c-4.4,0.2-8.7-0.4-12.8-1.8
		c1.6,7.4,3.5,14.8,5.8,22.1c1.4,4.4-5.5,6.3-6.9,1.9c-4.6-15-7.8-30.2-9.8-45.7c-0.8,0-1.6-0.3-2.3-0.9c0.2,3.4,0.5,6.8,0.7,10.2
		c0.7,9.3,1.4,18.7,2.1,28c0.4,4.6-6.8,4.6-7.1,0c-0.8-10.3-1.6-20.5-2.3-30.8c-0.2-2.5-0.3-5-0.5-7.4c-0.1-2.1-0.5-4.3-0.5-6.5
		c-2.9-1.2-5.8-2.3-8.7-3.4c-0.2,8.2,0.1,16.5,0.8,24.7c4.1,4.1,3.2,11.2-2.4,13.9c-6.1,3-14-2.7-11.5-9.5c0.2-0.6,0.5-1.2,0.9-1.7
		c0-0.1,0-0.2,0.1-0.3c-5.6-5-11.1-10-16.7-15c-1.9,3-4.2,5.9-7,8.1c6.9,4.3,12.9,10.2,18.6,15.8c5.5,5.4,10.9,11,15.8,17
		c2.9,3.5-2.1,8.6-5,5c-4.4-5.3-9.2-10.4-14-15.2c-5.4-5.4-11-10.9-17.2-15.3c-0.4-0.3-1-0.8-1.7-1.2c-0.2,1.5-0.3,2.9-0.5,4.4
		c7.4,4.9,12.7,12.6,18.4,19.3c5.7,6.8,11.8,13.5,15.7,21.5c2,4.1-4.2,7.7-6.2,3.6c-3.7-7.5-9.2-13.7-14.6-20.1
		c-0.6-0.7-1.2-1.4-1.7-2.1c-3.5,4.8-7.1,9.5-10.6,14.3c0,0-0.1,0.1-0.1,0.1c3.3,1.9,4.3,6.5,2.2,9.7c-0.2,0.3-0.5,0.6-0.7,0.9
		c-1.3,3.7-6,6-9.3,3.1c-1.5-1.4-2.4-3.7-2.5-5.9c-0.8-2.8-0.2-6.2,2.3-7.7c0.4-0.2,0.7-0.4,1.1-0.6c-3.3-2.9-5.9-6.4-7.8-10.3
		c-4.1,6.4-8,13-11.5,19.7c-2.2,4.1-8.3,0.5-6.2-3.6c7.2-13.7,15.7-26.6,25.1-38.8c-0.6-0.6-0.9-1.4-0.8-2.5
		c-2.6,2.9-5.1,5.9-7.7,8.8c-5.2,5.9-10.3,11.9-15.4,17.9c-3,3.5-8-1.6-5-5c5.7-6.7,11.5-13.4,17.3-20c3.2-3.7,6.5-7.5,9.7-11.2
		c0.2-0.2,0.4-0.4,0.6-0.6c-0.2-0.2-0.3-0.5-0.5-0.8c-1.1-2.6-2.2-5.2-3.4-7.7c-5.6,5.4-10.9,11-16,16.9c1.1,2.4,1.2,5.3-0.4,7.8
		c-3.1,5-11.4,4.8-13.9-0.6c-0.9-2-1-4.3-0.2-6.3c0-0.2,0.1-0.3,0.1-0.5c0.3-1,0.8-1.8,1.4-2.5c-0.1-0.4-0.2-0.7-0.1-1.2
		c0.6-8.4,0.7-16.8,0.3-25.1c-2.6,1-5.3,2.1-7.9,3.2c-0.3,0.1-0.6,0.2-1,0.3c0,1,0,2,0,3c-0.2,4.9-0.3,9.8-0.2,14.7
		c0.1,10,0.4,19.9-0.2,29.9c-0.3,4.6-7.4,4.6-7.1,0c0.5-9,0.4-18,0.3-27c-0.1-4.2-0.1-8.4,0-12.6c0-0.4,0-0.9,0.1-1.3
		c-0.7,0.7-1.5,1-2.4,1c-1.7,15.5-4.7,30.9-9,45.9c-1.3,4.4-8.2,2.5-6.9-1.9c2.1-7.3,3.9-14.7,5.4-22.1c-4.1,1.5-8.4,2.2-12.8,2
		c0.5,1.2,0.7,2.6,0.3,4c-0.6,2-2,3.6-3.8,4.5c-2.6,2.2-6.5,3.6-9.2,0.9c-2.1-2.1-2.2-4.7-1.1-7c0-1,0.2-2.1,0.7-3
		c1.4-2.8,4.7-4.4,7.7-3.7c0.8-5.9,1.5-11.8,2.3-17.7c-0.9,0.1-1.9,0.2-2.8,0.3c-8.2,0.8-16.5,1.5-24.4,4.3
		c-4.3,1.6-6.2-5.3-1.9-6.9c8.4-3.1,17.4-3.7,26.3-4.6c8.7-0.9,17.8-2.7,26.5-1.1c0.9-1.2,1.7-2.3,2.6-3.4c-0.2,0-0.3,0-0.5-0.1
		c-7.4-1.3-15.3-0.6-22.7,0c-6.9,0.5-13.8,1.4-20.7,2.2c-4.6,0.6-4.5-6.6,0-7.1c8-1,16.1-2,24.2-2.5c6.8-0.4,14.5-1.1,21.3,0.5
		c-0.4-3.5-0.1-7.1,0.6-10.6c-8.1-0.3-16.2-0.6-24.4-0.9c-0.3,0-0.6-0.1-0.9-0.1c-1,1.4-2.5,2.4-4.1,2.8c-2.6,1-5.7,0.8-7.9-1
		c-4.8-3.8-3.3-12,2.6-13.8c2-0.6,4.1-0.4,5.8,0.4c5.8-5.1,11.3-10.6,16.6-16.3c-2.6-1.2-5.2-2.3-7.9-3.3c-0.3-0.1-0.6-0.3-0.8-0.4
		c-1,1-2.1,2-3.1,2.9c-3.5,3.3-6.8,6.7-10.1,10.3c-6.5,7.2-12.9,14.4-20.2,20.8c-3.4,3.1-8.5-2-5-5c6.5-5.8,12.4-12.2,18.2-18.7
		c2.6-2.9,5.3-5.9,8.1-8.7c0.7-0.7,1.5-1.4,2.3-2.2c-1,0-1.8-0.4-2.5-1c-12.2,9.8-25.1,18.5-38.8,26.1c-4,2.2-7.6-3.9-3.6-6.2
		c6.7-3.7,13.2-7.6,19.5-11.9c-3.9-1.9-7.5-4.4-10.5-7.7c-0.5,1.2-1.3,2.3-2.5,3c-1.8,1-3.9,1.2-5.9,0.6c-3.3-0.2-7-1.9-7.2-5.6
		c-0.2-3.1,1.7-5.1,4.2-6c0.8-0.8,1.7-1.4,2.9-1.8c2.1-0.6,4.2-0.2,5.9,1c0,0,0,0,0,0c0.8,0.5,1.4,1.2,1.9,2c0.1,0,0.1-0.1,0.2-0.2
		c4.7-3.6,9.4-7.2,14-10.8c-0.7-0.6-1.5-1.2-2.2-1.7c-6.4-5.2-12.8-10.7-20.3-14.2c-4.2-1.9-0.5-8.1,3.6-6.2
		c8.1,3.8,14.9,9.7,21.8,15.3c6.8,5.5,14.6,10.7,19.6,18c1.4-0.2,2.8-0.4,4.3-0.6c-4-6.1-9.4-11.4-14.6-16.5
		c-4.9-4.8-9.9-9.4-15.3-13.6c-3.6-2.9,1.5-7.9,5-5c6.3,5,12.2,10.5,17.8,16.2c3,3.1,6,6.2,8.7,9.5c1.5,1.8,3.1,3.7,4.4,5.8
		c2.2-2.8,5-5,7.9-7c-5.5-6-11.1-11.9-16.6-17.9c-0.3-0.3-0.5-0.7-0.7-1c-1.9,0.5-3.9,0.1-5.4-0.9c-2.1-1-3.9-2.7-4.6-5
		c-1.7-6.2,5-11.8,10.8-9.4c2.2,0.9,3.7,2.7,4.5,4.7c7.7,0.5,15.5,0.5,23.2,0.2c-1-2.6-2.1-5.3-3.2-7.9c-0.1-0.3-0.2-0.5-0.2-0.8
		c-2.2,0-4.5-0.3-6.5-0.3c-4.1,0-8.2,0.3-12.3,0.8c-8.4,1-16.6,1.7-25,1.3c-4.6-0.2-4.6-7.4,0-7.1c7.8,0.4,15.3-0.1,23-1
		c3.3-0.4,6.7-0.8,10.1-0.9c1.4-0.1,2.8-0.1,4.2-0.1c-0.7-0.7-1.1-1.6-1.1-2.5c-15.5-1.7-30.9-4.7-45.9-9c-4.4-1.3-2.5-8.2,1.9-6.9
		c7.3,2.1,14.7,3.9,22.1,5.4c-1.5-4.1-2.2-8.4-2-12.8c-1.2,0.5-2.6,0.7-4,0.3c-2-0.6-3.6-2-4.5-3.8c-2.2-2.6-3.6-6.5-0.9-9.2
		c2.1-2.1,4.7-2.2,7-1.1c1,0,2.1,0.2,3,0.7c2.8,1.4,4.4,4.7,3.7,7.7c5.9,0.8,11.8,1.5,17.7,2.3c-0.1-0.9-0.2-1.9-0.3-2.8
		c-0.8-8.2-1.5-16.5-4.3-24.4c-1.6-4.3,5.3-6.2,6.9-1.9c3.1,8.4,3.7,17.4,4.6,26.3c0.9,8.7,2.7,17.8,1.1,26.5
		c1.2,0.9,2.4,1.8,3.6,2.7c0.2-1.1,0.3-2.3,0.4-2.9c0.3-1.7,0.5-3.4,0.7-5c0.5-4.1,0.7-8.2,0.9-12.2c0.3-6.8,0.3-13.8-0.4-20.6
		c-0.5-4.6,6.6-4.5,7.1,0c0.9,8,0.7,16.2,0.3,24.2c-0.3,4.3-0.7,8.6-1.3,12.9c-0.2,1.6-0.4,3.4-0.8,5.2c3.5-0.4,7,0,10.5,0.7
		c0.3-8.1,0.6-16.2,0.9-24.4c0-0.3,0.1-0.6,0.1-0.9c-1.4-1-2.4-2.5-2.8-4.1c-1-2.6-0.8-5.7,1-7.9c3.8-4.8,12-3.3,13.8,2.6
		c0.6,2,0.4,4.1-0.4,5.8c5.1,5.8,10.6,11.3,16.3,16.6c1.2-2.6,2.3-5.2,3.3-7.9c0.1-0.3,0.3-0.6,0.5-0.8c-0.7-0.6-1.4-1.3-2-2.1
		c-3.1-3.3-6.2-6.5-9.5-9.5c-6.6-6.1-13.2-12-19.1-18.6c-3.1-3.4,2-8.5,5-5c5.4,6.1,11.2,11.6,17.3,17c2.8,2.5,5.5,5,8.1,7.7
		c0.3,0.3,0.5,0.5,0.8,0.8c0-1,0.4-1.8,1-2.5c-9.8-12.2-18.5-25.1-26.1-38.8c-2.2-4,3.9-7.6,6.2-3.6c3.7,6.7,7.6,13.2,11.9,19.5
		c1.9-3.9,4.4-7.5,7.7-10.5c-1.2-0.5-2.3-1.3-3-2.5c-1-1.8-1.2-3.9-0.6-5.9c0.2-3.3,1.9-7,5.6-7.2c3.1-0.2,5.1,1.7,6,4.2
		c0.8,0.8,1.4,1.7,1.8,2.9c0.6,2.1,0.2,4.2-1,5.9c0,0,0,0,0,0c-0.5,0.8-1.2,1.4-2,1.9c0,0.1,0.1,0.1,0.2,0.2
		c3.6,4.7,7.2,9.4,10.8,14c0.6-0.7,1.2-1.5,1.7-2.2c5.2-6.4,10.7-12.8,14.2-20.3c1.9-4.2,8.1-0.5,6.2,3.6
		c-3.8,8.1-9.7,14.9-15.3,21.8c-5.5,6.8-10.7,14.6-18,19.6c0.2,1.4,0.4,2.9,0.6,4.3c0.3-0.2,0.6-0.4,0.9-0.7
		c6.2-4.3,11.8-9.9,17.1-15.3c4.8-4.9,9.5-9.9,13.7-15.3c2.9-3.6,7.9,1.5,5,5c-5,6.3-10.5,12.1-16.2,17.8
		c-5.1,5.1-10.6,10.6-16.8,14.5c2.8,2.2,5.1,5,7.1,8c5.5-5.1,10.9-10.2,16.4-15.3c0-0.1,0-0.1-0.1-0.2c-0.5-0.7-0.9-1.5-1.2-2.3
		c-2-7,5.9-12,11.9-9.1c6,3,6.3,11.2,0.9,14.9c0.4,7.9,0.8,15.9,1.3,23.8c3.4-0.8,6.9-1.2,10.4-0.9c-0.9-3.3-1.2-6.9-1.6-9.9
		c-0.6-4.9-0.6-9.8-0.2-14.8c0.5-7.5,0.9-15.1,1.6-22.5c0.5-4.5,7.6-4.6,7.1,0c-0.6,6.5-0.8,12.9-1.4,19.4
		c-0.8,8.9-0.6,17.5,1.6,26.1c1.1-0.9,2.3-1.8,3.4-2.7c-1.8-8.7-0.1-17.9,0.6-26.6c0.7-8.9,1.2-17.9,4.1-26.4
		c1.5-4.3,8.4-2.5,6.9,1.9c-2.7,7.9-3.2,16.2-3.9,24.5c-0.1,0.9-0.2,1.8-0.3,2.7c5.8-0.9,11.7-1.7,17.5-2.6c0.1,0,0.1,0,0.2,0
		c-0.1-0.2-0.1-0.4-0.1-0.6c-0.6-3.8,2.4-7.7,6.3-7.9c0.1,0,0.2,0,0.3,0c3.2-1.5,7.5-0.4,8.6,3.4c0.6,2.4-0.5,4.9-2.3,6.9
		c-1.4,2.7-4.4,4.7-7.4,3.8c-0.3-0.1-0.6-0.2-0.9-0.4c0.2,4.4-0.4,8.7-1.8,12.8c7.4-1.6,14.8-3.5,22.1-5.8c4.4-1.4,6.3,5.5,1.9,6.9
		c-15,4.6-30.2,7.8-45.7,9.8c0,0.9-0.3,1.7-1,2.4c1.2,0,2.3-0.1,3.5-0.1c3.8,0,7.5,0.1,11.3,0.2c7.9,0.3,15.8,0.4,23.7-0.2
		c4.6-0.3,4.6,6.8,0,7.1c-9,0.7-17.8,0.4-26.7,0.1c-4.5-0.2-8.9-0.2-13.4,0.1c-1.5,0.1-3.1,0.2-4.7,0.3c0,0,0,0.1,0,0.1
		c-1.2,2.9-2.3,5.8-3.4,8.7c8.2,0.2,16.5-0.1,24.7-0.8c4.1-4.1,11.2-3.2,13.9,2.4c3,6.1-2.7,14-9.5,11.5c-0.6-0.2-1.2-0.5-1.7-0.9
		c-0.1,0-0.2,0-0.3-0.1c-5,5.6-10,11.1-15,16.7c3,1.9,5.9,4.2,8.1,7c4.2-6.7,10-12.7,15.5-18.4c5.5-5.7,11.2-11.3,17.3-16.3
		c3.5-2.9,8.6,2.1,5,5c-11,9-22.1,19.6-30.4,31.3c-0.4,0.5-1,1.2-1.4,1.9c1.5,0.2,2.9,0.3,4.4,0.5c4.9-7.4,12.6-12.7,19.3-18.4
		c6.8-5.7,13.5-11.8,21.5-15.7c4.1-2,7.7,4.2,3.6,6.2c-7.5,3.7-13.7,9.2-20.1,14.6c-0.7,0.6-1.4,1.2-2.1,1.7
		c4.8,3.5,9.5,7.1,14.3,10.6c0,0,0.1,0.1,0.1,0.1c1.9-3.3,6.5-4.3,9.7-2.2c0.3,0.2,0.6,0.5,0.9,0.7C303.6,163.1,306,167.8,303,171.1
		z M441.6,249.8l-8.5-0.5l2.5-43l-11.7,6.7l-2.3,40.2l-8.5-0.5l1.8-32.1l-13.8,24.8l-0.3,0l-40.5-0.7l19.8-35.6l0.3,0l28.1,0.5
		l-28.7-14.4l3.8-7.6l35.9,18.1l11.7-6.7l-38.5-19.4l3.8-7.6l43.4,21.9l39.8-23l4.3,7.4l-39.8,23L441.6,249.8z M452.1,203.6l0.2-0.1
		l35.4-19.6l0.7,40.7l-0.2,0.1l-35.4,19.6L452.1,203.6z M538.9,264l-0.4-0.3l-35.6-23.4v13.5l33.6,22.1l-4.7,7.1l-26.8-17.6
		l14.6,24.3l-21,34.9l-21-34.9l14.6-24.3L465.4,283l-4.7-7.1l33.6-22.1v-13.5l-36,23.6l-4.7-7.1l0.4-0.3l40.3-26.4v-46h8.5v46
		l40.7,26.7L538.9,264z M545.2,203.9l-0.7,40.5l-35.6-19.8l0-0.3l0.7-40.5l35.6,19.8L545.2,203.9z M596.2,245.5l-13.8-24.8l1.8,32.1
		l-8.5,0.5l0-0.5l-2.3-39.7l-11.7-6.7l2.5,43l-8.5,0.5l0-0.5l-2.7-48.1l-39.8-23l4.3-7.4l39.8,23l43.4-21.9l3.8,7.6l-0.4,0.2
		l-38,19.2l11.7,6.7l35.9-18.1l3.8,7.6l-0.4,0.2l-28.3,14.2l28.3-0.5l19.8,35.6L596.2,245.5z M520.4,165l34.9-21l34.9,21l-34.9,21
		L520.4,165z M617.1,120.8l-28.3-0.5l28.7,14.4l-3.8,7.6l-0.4-0.2l-35.5-17.9l-11.7,6.7l38.5,19.4l-3.8,7.6l-0.4-0.2l-43-21.7
		l-39.8,23l-4.3-7.4l39.8-23l2.8-48.6l8.5,0.5l0,0.5l-2.4,42.5l11.7-6.7l2.3-40.2l8.5,0.5l0,0.5l-1.8,31.6l13.8-24.8l40.7,0.7
		L617.1,120.8z M968.8,169.6h-23.5l17.8,17.8l-6.7,6.7l-24.5-24.5h-13.8l24.2,24.2l-6.7,6.7l-30.9-30.9h-13.4l35,35H877l9.4,9.4
		h43.7v9.5h-34.2l9.7,9.7h34.6v9.5h-25.2l16.6,16.6L925,266l-16.6-16.6v25.2h-9.5v-34.6l-9.7-9.7v34.2h-9.5v-43.7l-9.4-9.4l0,49.5
		l-34.9-34.9v13.4l30.9,30.9l-6.7,6.7l-24.2-24.2v13.8l24.5,24.5l-6.7,6.7l-17.8-17.8v23.5h-9.5v-23.5l-17.8,17.8l-6.7-6.7
		l24.5-24.5v-13.8l-24.2,24.2l-6.7-6.7l30.9-30.9v-13.4l-35,35v-49.3l-9.4,9.4v43.7H772v-34.2l-9.7,9.7v34.6h-9.5v-25.2l-16.6,16.6
		l-6.7-6.7l16.6-16.6H721v-9.5h34.6l9.7-9.7h-34.2v-9.5h43.7l9.4-9.4h-49.5l34.9-34.9h-13.4l-30.9,30.9l-6.7-6.7l24.2-24.2h-13.8
		l-24.5,24.5l-6.7-6.7l17.8-17.8h-23.5v-9.5h23.5L698,142.6l6.7-6.7l24.5,24.5h13.8l-24.2-24.2l6.7-6.7l30.9,30.9h13.4l-35-35H784
		l-9.4-9.4h-43.7v-9.5h34.2l-9.7-9.7h-34.6v-9.5h25.2l-16.6-16.6L736,64l16.6,16.6V55.5h9.5v34.6l9.7,9.7V65.6h9.5v43.7l9.4,9.4
		l0-49.5l34.9,34.9V90.8l-30.9-30.9l6.7-6.7l24.2,24.2V63.6l-24.5-24.5l6.7-6.7l17.8,17.8V26.7h9.5v23.5l17.8-17.8l6.7,6.7
		l-24.5,24.5v13.8l24.2-24.2l6.7,6.7l-30.9,30.9v13.4l35-35v49.3l9.4-9.4V65.4h9.5v34.2l9.7-9.7V55.2h9.5v25.2l16.6-16.6l6.7,6.7
		l-16.6,16.6H940v9.5h-34.6l-9.7,9.7h34.2v9.5h-43.7l-9.4,9.4h49.5l-34.9,34.9h13.4l30.9-30.9l6.7,6.7l-24.2,24.2h13.8l24.5-24.5
		l6.7,6.7l-17.8,17.8h23.5V169.6z M1054.3,199.9l30.3-30.3H1060l-22.9,22.9l-6.5-6.5l16.4-16.4h-31.4v-9.2h31.4l-16.4-16.4l6.5-6.5
		l22.9,22.9h24.6l-30.3-30.3l6.5-6.5l36.8,36.8h39.9v9.2h-39.9l-36.8,36.8L1054.3,199.9z M1138.3,174l-18.6,33.4l-0.3,0l-38-0.6
		l18.6-33.4l0.3,0L1138.3,174z M1134.3,268.7l-11.1-41.4l-12.3,21.3l8.4,31.2l-8.9,2.4l-6-22.3l-15.7,27.2l-8-4.6l0.2-0.4l15.5-26.8
		l-22.3,6l-2.4-8.9l31.2-8.4l12.3-21.3l-41.4,11.1l-2.4-8.9l50.3-13.5l19.9-34.5l8,4.6l-0.2,0.4l-19.7,34.2l13.5,50.3L1134.3,268.7z
		 M1134.2,215.7l19.7-32.8l19.7,32.8l-19.7,32.8L1134.2,215.7z M1204.8,244l31.2,8.4l-2.4,8.9l-0.4-0.1l-21.9-5.9l15.7,27.2l-8,4.6
		l-0.2-0.4l-15.5-26.8l-6,22.3l-8.9-2.4l8.4-31.2l-12.3-21.3l-11.1,41.4l-8.9-2.4L1178,216l-19.9-34.5l8-4.6l0.2,0.4l19.7,34.2
		l50.3,13.5l-2.4,8.9l-0.4-0.1l-41-11L1204.8,244z M1292.1,169.6h-31.4l16.4,16.4l-6.5,6.5l-22.9-22.9h-24.6l30.3,30.3l-6.5,6.5
		l-36.8-36.8h-39.9v-9.2h39.9l36.8-36.8l6.5,6.5l-30.3,30.3h24.6l22.9-22.9l6.5,6.5l-16.4,16.4h31.4V169.6z"/>
	<linearGradient id="SVGID_42_" gradientUnits="userSpaceOnUse" x1="1153.8826" y1="15" x2="1153.8827" y2="321.4719">
		<stop  offset="0.2266" style="stop-color:#0C0014"/>
		<stop  offset="0.7783" style="stop-color:#131C25"/>
	</linearGradient>
	<polygon class="st41" points="1153.9,129.2 1162.8,114.3 1153.9,99.3 1144.9,114.3 	"/>
	<linearGradient id="SVGID_43_" gradientUnits="userSpaceOnUse" x1="1153.8826" y1="15" x2="1153.8827" y2="321.4719">
		<stop  offset="0.2266" style="stop-color:#0C0014"/>
		<stop  offset="0.7783" style="stop-color:#131C25"/>
	</linearGradient>
	<polygon class="st42" points="1153.9,200.8 1144.9,215.7 1153.9,230.7 1162.8,215.7 	"/>
	<linearGradient id="SVGID_44_" gradientUnits="userSpaceOnUse" x1="1153.8827" y1="15" x2="1153.8827" y2="321.4719">
		<stop  offset="0.2266" style="stop-color:#0C0014"/>
		<stop  offset="0.7783" style="stop-color:#131C25"/>
	</linearGradient>
	<path class="st43" d="M1153.9,160c-0.9,0-1.7,0.2-2.5,0.7c-1.1,0.7-2,1.7-2.3,3c-0.3,1.3-0.2,2.6,0.5,3.8c0.9,1.5,2.5,2.5,4.3,2.5
		c0.9,0,1.7-0.2,2.5-0.7c1.1-0.7,2-1.7,2.3-3c0.3-1.3,0.2-2.6-0.5-3.8C1157.3,161,1155.6,160,1153.9,160z"/>
	<linearGradient id="SVGID_45_" gradientUnits="userSpaceOnUse" x1="1109.936" y1="15" x2="1109.936" y2="321.4719">
		<stop  offset="0.2266" style="stop-color:#0C0014"/>
		<stop  offset="0.7783" style="stop-color:#131C25"/>
	</linearGradient>
	<polygon class="st44" points="1114.4,198.1 1122.9,182.9 1105.5,182.6 1097,197.8 	"/>
	<linearGradient id="SVGID_46_" gradientUnits="userSpaceOnUse" x1="271.4772" y1="15" x2="271.4772" y2="321.4719">
		<stop  offset="0.2266" style="stop-color:#0C0014"/>
		<stop  offset="0.7783" style="stop-color:#131C25"/>
	</linearGradient>
	<path class="st45" d="M269.3,157.2c-3.1,2.5-6.1,5.2-8.6,8.2c3.5,2.7,7.1,5.3,10.7,7.8c0,0,0.1,0,0.1,0c4.1-1.3,7.7-3.5,10.7-6.4
		C277.9,163.6,273.6,160.4,269.3,157.2z"/>
	<linearGradient id="SVGID_47_" gradientUnits="userSpaceOnUse" x1="390.677" y1="15" x2="390.677" y2="321.4719">
		<stop  offset="0.2266" style="stop-color:#0C0014"/>
		<stop  offset="0.7783" style="stop-color:#131C25"/>
	</linearGradient>
	<polygon class="st46" points="374.7,236.5 396.2,236.9 406.6,218.1 385.2,217.8 	"/>
	<linearGradient id="SVGID_48_" gradientUnits="userSpaceOnUse" x1="470.3072" y1="15" x2="470.3072" y2="321.4719">
		<stop  offset="0.2266" style="stop-color:#0C0014"/>
		<stop  offset="0.7783" style="stop-color:#131C25"/>
	</linearGradient>
	<polygon class="st47" points="460.7,208.6 461.1,230.1 479.9,219.6 479.5,198.2 	"/>
	<linearGradient id="SVGID_49_" gradientUnits="userSpaceOnUse" x1="441.9443" y1="15" x2="441.9443" y2="321.4719">
		<stop  offset="0.2266" style="stop-color:#0C0014"/>
		<stop  offset="0.7783" style="stop-color:#131C25"/>
	</linearGradient>
	<polygon class="st48" points="441.9,176 460.3,165 441.9,154 423.5,165 	"/>
	<linearGradient id="SVGID_50_" gradientUnits="userSpaceOnUse" x1="209.7362" y1="15" x2="209.7362" y2="321.4719">
		<stop  offset="0.2266" style="stop-color:#0C0014"/>
		<stop  offset="0.7783" style="stop-color:#131C25"/>
	</linearGradient>
	<path class="st49" d="M214.6,182.1c-7.6-5.5-15.1-10-24-12.7c-5.5,0-11-0.1-16.4-0.2c2.5,2.7,5.1,5.3,7.7,7.9
		c0.7-0.1,1.5,0,2.3,0.5c5,3.1,10.8,4,16.5,4.9c4.6,0.8,10.9,1.2,14.4,4.5c2.6,2.5,4.2,6.7,5.4,10.6c8.2-0.4,16.4-0.9,24.6-1.3
		c0.1-0.1,0.2-0.3,0.3-0.4c-6-5.2-11.8-10.7-17.3-16.5c-0.1-0.1-0.1-0.1-0.1-0.2c-0.6,0.3-1.2,0.6-1.8,0.9
		C222.2,182.2,218.8,185.1,214.6,182.1z"/>
	<linearGradient id="SVGID_51_" gradientUnits="userSpaceOnUse" x1="252.737" y1="15" x2="252.737" y2="321.4719">
		<stop  offset="0.2266" style="stop-color:#0C0014"/>
		<stop  offset="0.7783" style="stop-color:#131C25"/>
	</linearGradient>
	<path class="st50" d="M252.8,200c0-0.1-0.1-0.2-0.1-0.3c0,0,0,0,0,0C252.7,199.9,252.8,199.9,252.8,200z"/>
	<linearGradient id="SVGID_52_" gradientUnits="userSpaceOnUse" x1="390.677" y1="15" x2="390.677" y2="321.4719">
		<stop  offset="0.2266" style="stop-color:#0C0014"/>
		<stop  offset="0.7783" style="stop-color:#131C25"/>
	</linearGradient>
	<polygon class="st51" points="406.6,111.8 396.2,93.1 374.7,93.5 385.2,112.2 	"/>
	<linearGradient id="SVGID_53_" gradientUnits="userSpaceOnUse" x1="498.67" y1="15" x2="498.67" y2="321.4719">
		<stop  offset="0.2266" style="stop-color:#0C0014"/>
		<stop  offset="0.7783" style="stop-color:#131C25"/>
	</linearGradient>
	<polygon class="st52" points="487.6,289.7 498.7,308.1 509.7,289.7 498.7,271.3 	"/>
	<linearGradient id="SVGID_54_" gradientUnits="userSpaceOnUse" x1="527.0328" y1="15" x2="527.0328" y2="321.4719">
		<stop  offset="0.2266" style="stop-color:#0C0014"/>
		<stop  offset="0.7783" style="stop-color:#131C25"/>
	</linearGradient>
	<polygon class="st53" points="536.6,208.6 517.8,198.2 517.5,219.6 536.2,230.1 	"/>
	<linearGradient id="SVGID_55_" gradientUnits="userSpaceOnUse" x1="606.6629" y1="15" x2="606.6629" y2="321.4719">
		<stop  offset="0.2266" style="stop-color:#0C0014"/>
		<stop  offset="0.7783" style="stop-color:#131C25"/>
	</linearGradient>
	<polygon class="st54" points="590.7,218.1 601.1,236.9 622.6,236.5 612.2,217.8 	"/>
	<linearGradient id="SVGID_56_" gradientUnits="userSpaceOnUse" x1="470.3072" y1="15" x2="470.3072" y2="321.4719">
		<stop  offset="0.2266" style="stop-color:#0C0014"/>
		<stop  offset="0.7783" style="stop-color:#131C25"/>
	</linearGradient>
	<polygon class="st55" points="460.7,121.4 479.5,131.8 479.9,110.4 461.1,99.9 	"/>
</g>
</svg>
